<?xml version="1.0" encoding="utf-8" standalone="no"?>
<!DOCTYPE svg PUBLIC "-//W3C//DTD SVG 1.1//EN"
  "http://www.w3.org/Graphics/SVG/1.1/DTD/svg11.dtd">
<svg xmlns:xlink="http://www.w3.org/1999/xlink" width="292.46075pt" height="270.432pt" viewBox="0 0 292.46075 270.432" xmlns="http://www.w3.org/2000/svg" version="1.1">
 <metadata>
  <rdf:RDF xmlns:dc="http://purl.org/dc/elements/1.1/" xmlns:cc="http://creativecommons.org/ns#" xmlns:rdf="http://www.w3.org/1999/02/22-rdf-syntax-ns#">
   <cc:Work>
    <dc:type rdf:resource="http://purl.org/dc/dcmitype/StillImage"/>
    <dc:date>2026-10-01T02:02:36.819596</dc:date>
    <dc:format>image/svg+xml</dc:format>
    <dc:creator>
     <cc:Agent>
      <dc:title>Matplotlib v3.11.2, https://matplotlib.org/</dc:title>
     </cc:Agent>
    </dc:creator>
   </cc:Work>
  </rdf:RDF>
 </metadata>
 <defs>
  <style type="text/css">*{stroke-linejoin: round; stroke-linecap: butt}</style>
 </defs>
 <g id="figure_1">
  <g id="patch_1">
   <path d="M 0 270.432 
L 292.46075 270.432 
L 292.46075 0 
L 0 0 
z
" style="fill: #ffffff"/>
  </g>
  <g id="patch_2">
   <path d="M 2.16 268.272 
L 268.272 268.272 
L 268.272 2.16 
L 2.16 2.16 
z
" style="fill: #ffffff"/>
  </g>
  <g id="pane3d_1">
   <g id="patch_3">
    <path d="M 22.7933 205.725191 
L 104.513644 146.652831 
L 103.428845 34.523306 
L 18.747581 84.158252 
" style="fill: #f2f2f2; opacity: 0.5; stroke: #f2f2f2; stroke-linejoin: miter"/>
   </g>
  </g>
  <g id="pane3d_2">
   <g id="patch_4">
    <path d="M 104.513644 146.652831 
L 249.454072 175.356782 
L 253.12755 58.602593 
L 103.428845 34.523306 
" style="fill: #e6e6e6; opacity: 0.5; stroke: #e6e6e6; stroke-linejoin: miter"/>
   </g>
  </g>
  <g id="pane3d_3">
   <g id="patch_5">
    <path d="M 22.7933 205.725191 
L 178.513188 240.565167 
L 249.454072 175.356782 
L 104.513644 146.652831 
" style="fill: #ececec; opacity: 0.5; stroke: #ececec; stroke-linejoin: miter"/>
   </g>
  </g>
  <g id="axis3d_1">
   <g id="line2d_1">
    <path d="M 22.7933 205.725191 
L 178.513188 240.565167 
" style="fill: none; stroke: #000000; stroke-width: 0.8; stroke-linecap: square"/>
   </g>
   <g id="xtick_1">
    <g id="line2d_2">
     <path d="M 34.672329 207.70073 
L 32.533447 209.272095 
" style="fill: none; stroke: #000000; stroke-width: 0.8; stroke-linecap: square"/>
    </g>
    <g id="text_1">
     <text style="font-size: 8px; font-family: 'DejaVu Serif'; text-anchor: middle" x="26.827293" y="229.590238" transform="rotate(-0 26.827293 229.590238)">−120</text>
    </g>
   </g>
   <g id="xtick_2">
    <g id="line2d_3">
     <path d="M 58.734521 213.0787 
L 56.636095 214.675917 
" style="fill: none; stroke: #000000; stroke-width: 0.8; stroke-linecap: square"/>
    </g>
    <g id="text_2">
     <text style="font-size: 8px; font-family: 'DejaVu Serif'; text-anchor: middle" x="50.977136" y="235.132433" transform="rotate(-0 50.977136 235.132433)">−100</text>
    </g>
   </g>
   <g id="xtick_3">
    <g id="line2d_4">
     <path d="M 83.19374 218.545407 
L 81.137405 220.169119 
" style="fill: none; stroke: #000000; stroke-width: 0.8; stroke-linecap: square"/>
    </g>
    <g id="text_3">
     <text style="font-size: 8px; font-family: 'DejaVu Serif'; text-anchor: middle" x="75.527997" y="240.766657" transform="rotate(-0 75.527997 240.766657)">−80</text>
    </g>
   </g>
   <g id="xtick_4">
    <g id="line2d_5">
     <path d="M 108.059897 224.103066 
L 106.047351 225.753938 
" style="fill: none; stroke: #000000; stroke-width: 0.8; stroke-linecap: square"/>
    </g>
    <g id="text_4">
     <text style="font-size: 8px; font-family: 'DejaVu Serif'; text-anchor: middle" x="100.489945" y="246.495223" transform="rotate(-0 100.489945 246.495223)">−60</text>
    </g>
   </g>
   <g id="xtick_5">
    <g id="line2d_6">
     <path d="M 133.34323 229.753964 
L 131.376242 231.432684 
" style="fill: none; stroke: #000000; stroke-width: 0.8; stroke-linecap: square"/>
    </g>
    <g id="text_5">
     <text style="font-size: 8px; font-family: 'DejaVu Serif'; text-anchor: middle" x="125.873396" y="252.32052" transform="rotate(-0 125.873396 252.32052)">−40</text>
    </g>
   </g>
   <g id="xtick_6">
    <g id="line2d_7">
     <path d="M 159.054328 235.50047 
L 157.134736 237.207747 
" style="fill: none; stroke: #000000; stroke-width: 0.8; stroke-linecap: square"/>
    </g>
    <g id="text_6">
     <text style="font-size: 8px; font-family: 'DejaVu Serif'; text-anchor: middle" x="151.689114" y="258.24502" transform="rotate(-0 151.689114 258.24502)">−20</text>
    </g>
   </g>
   <g id="text_7">
    <text style="font-size: 8px; font-family: 'DejaVu Serif'; text-anchor: middle" x="84.859572" y="254.92609" transform="rotate(-347.388626 84.859572 254.92609)">x (mm)</text>
   </g>
  </g>
  <g id="axis3d_2">
   <g id="line2d_8">
    <path d="M 249.454072 175.356782 
L 178.513188 240.565167 
" style="fill: none; stroke: #000000; stroke-width: 0.8; stroke-linecap: square"/>
   </g>
   <g id="xtick_7">
    <g id="line2d_9">
     <path d="M 182.531087 235.383685 
L 186.447567 236.252228 
" style="fill: none; stroke: #000000; stroke-width: 0.8; stroke-linecap: square"/>
    </g>
    <g id="text_8">
     <text style="font-size: 8px; font-family: 'DejaVu Serif'; text-anchor: middle" x="197.257691" y="254.876386" transform="rotate(-0 197.257691 254.876386)">−100</text>
    </g>
   </g>
   <g id="xtick_8">
    <g id="line2d_10">
     <path d="M 190.783306 227.814747 
L 194.6668 228.664188 
" style="fill: none; stroke: #000000; stroke-width: 0.8; stroke-linecap: square"/>
    </g>
    <g id="text_9">
     <text style="font-size: 8px; font-family: 'DejaVu Serif'; text-anchor: middle" x="205.362225" y="247.144848" transform="rotate(-0 205.362225 247.144848)">−75</text>
    </g>
   </g>
   <g id="xtick_9">
    <g id="line2d_11">
     <path d="M 198.855134 220.411264 
L 202.706141 221.242226 
" style="fill: none; stroke: #000000; stroke-width: 0.8; stroke-linecap: square"/>
    </g>
    <g id="text_10">
     <text style="font-size: 8px; font-family: 'DejaVu Serif'; text-anchor: middle" x="213.28927" y="239.58263" transform="rotate(-0 213.28927 239.58263)">−50</text>
    </g>
   </g>
   <g id="xtick_10">
    <g id="line2d_12">
     <path d="M 206.752421 213.167869 
L 210.571431 213.980949 
" style="fill: none; stroke: #000000; stroke-width: 0.8; stroke-linecap: square"/>
    </g>
    <g id="text_11">
     <text style="font-size: 8px; font-family: 'DejaVu Serif'; text-anchor: middle" x="221.044594" y="232.18423" transform="rotate(-0 221.044594 232.18423)">−25</text>
    </g>
   </g>
   <g id="xtick_11">
    <g id="line2d_13">
     <path d="M 214.480769 206.079425 
L 218.268261 206.875195 
" style="fill: none; stroke: #000000; stroke-width: 0.8; stroke-linecap: square"/>
    </g>
    <g id="text_12">
     <text style="font-size: 8px; font-family: 'DejaVu Serif'; text-anchor: middle" x="228.633716" y="224.944383" transform="rotate(-0 228.633716 224.944383)">0</text>
    </g>
   </g>
   <g id="xtick_12">
    <g id="line2d_14">
     <path d="M 222.045542 199.141013 
L 225.801988 199.920019 
" style="fill: none; stroke: #000000; stroke-width: 0.8; stroke-linecap: square"/>
    </g>
    <g id="text_13">
     <text style="font-size: 8px; font-family: 'DejaVu Serif'; text-anchor: middle" x="236.061923" y="217.858045" transform="rotate(-0 236.061923 217.858045)">25</text>
    </g>
   </g>
   <g id="xtick_13">
    <g id="line2d_15">
     <path d="M 229.451877 192.347919 
L 233.17774 193.110685 
" style="fill: none; stroke: #000000; stroke-width: 0.8; stroke-linecap: square"/>
    </g>
    <g id="text_14">
     <text style="font-size: 8px; font-family: 'DejaVu Serif'; text-anchor: middle" x="243.334279" y="210.920385" transform="rotate(-0 243.334279 210.920385)">50</text>
    </g>
   </g>
   <g id="xtick_14">
    <g id="line2d_16">
     <path d="M 236.704702 185.695626 
L 240.400435 186.442655 
" style="fill: none; stroke: #000000; stroke-width: 0.8; stroke-linecap: square"/>
    </g>
    <g id="text_15">
     <text style="font-size: 8px; font-family: 'DejaVu Serif'; text-anchor: middle" x="250.455639" y="204.126773" transform="rotate(-0 250.455639 204.126773)">75</text>
    </g>
   </g>
   <g id="xtick_15">
    <g id="line2d_17">
     <path d="M 243.808739 179.1798 
L 247.474789 179.911574 
" style="fill: none; stroke: #000000; stroke-width: 0.8; stroke-linecap: square"/>
    </g>
    <g id="text_16">
     <text style="font-size: 8px; font-family: 'DejaVu Serif'; text-anchor: middle" x="257.430655" y="197.472768" transform="rotate(-0 257.430655 197.472768)">100</text>
    </g>
   </g>
   <g id="text_17">
    <text style="font-size: 8px; font-family: 'DejaVu Serif'; text-anchor: middle" x="241.842481" y="231.859717" transform="rotate(-42.589013 241.842481 231.859717)">y (mm)</text>
   </g>
  </g>
  <g id="axis3d_3">
   <g id="line2d_18">
    <path d="M 249.454072 175.356782 
L 253.12755 58.602593 
" style="fill: none; stroke: #000000; stroke-width: 0.8; stroke-linecap: square"/>
   </g>
   <g id="xtick_16">
    <g id="line2d_19">
     <path d="M 248.239192 175.116188 
L 251.886643 175.838528 
" style="fill: none; stroke: #000000; stroke-width: 0.8; stroke-linecap: square"/>
    </g>
    <g id="text_18">
     <text style="font-size: 8px; font-family: 'DejaVu Serif'; text-anchor: middle" x="267.320414" y="179.041143" transform="rotate(-0 267.320414 179.041143)">0</text>
    </g>
   </g>
   <g id="xtick_17">
    <g id="line2d_20">
     <path d="M 248.648513 161.961399 
L 252.310098 162.671175 
" style="fill: none; stroke: #000000; stroke-width: 0.8; stroke-linecap: square"/>
    </g>
    <g id="text_19">
     <text style="font-size: 8px; font-family: 'DejaVu Serif'; text-anchor: middle" x="267.799447" y="165.923841" transform="rotate(-0 267.799447 165.923841)">25</text>
    </g>
   </g>
   <g id="xtick_18">
    <g id="line2d_21">
     <path d="M 249.060907 148.707828 
L 252.736737 149.404831 
" style="fill: none; stroke: #000000; stroke-width: 0.8; stroke-linecap: square"/>
    </g>
    <g id="text_20">
     <text style="font-size: 8px; font-family: 'DejaVu Serif'; text-anchor: middle" x="268.282065" y="152.708379" transform="rotate(-0 268.282065 152.708379)">50</text>
    </g>
   </g>
   <g id="xtick_19">
    <g id="line2d_22">
     <path d="M 249.476411 135.354357 
L 253.166596 136.038374 
" style="fill: none; stroke: #000000; stroke-width: 0.8; stroke-linecap: square"/>
    </g>
    <g id="text_21">
     <text style="font-size: 8px; font-family: 'DejaVu Serif'; text-anchor: middle" x="268.768307" y="139.393653" transform="rotate(-0 268.768307 139.393653)">75</text>
    </g>
   </g>
   <g id="xtick_20">
    <g id="line2d_23">
     <path d="M 249.895058 121.899852 
L 253.599711 122.570666 
" style="fill: none; stroke: #000000; stroke-width: 0.8; stroke-linecap: square"/>
    </g>
    <g id="text_22">
     <text style="font-size: 8px; font-family: 'DejaVu Serif'; text-anchor: middle" x="269.258216" y="125.978538" transform="rotate(-0 269.258216 125.978538)">100</text>
    </g>
   </g>
   <g id="xtick_21">
    <g id="line2d_24">
     <path d="M 250.316884 108.343164 
L 254.036119 109.000553 
" style="fill: none; stroke: #000000; stroke-width: 0.8; stroke-linecap: square"/>
    </g>
    <g id="text_23">
     <text style="font-size: 8px; font-family: 'DejaVu Serif'; text-anchor: middle" x="269.751832" y="112.461897" transform="rotate(-0 269.751832 112.461897)">125</text>
    </g>
   </g>
   <g id="xtick_22">
    <g id="line2d_25">
     <path d="M 250.741926 94.683123 
L 254.475858 95.326863 
" style="fill: none; stroke: #000000; stroke-width: 0.8; stroke-linecap: square"/>
    </g>
    <g id="text_24">
     <text style="font-size: 8px; font-family: 'DejaVu Serif'; text-anchor: middle" x="270.249198" y="98.842571" transform="rotate(-0 270.249198 98.842571)">150</text>
    </g>
   </g>
   <g id="xtick_23">
    <g id="line2d_26">
     <path d="M 251.170221 80.918542 
L 254.918966 81.548405 
" style="fill: none; stroke: #000000; stroke-width: 0.8; stroke-linecap: square"/>
    </g>
    <g id="text_25">
     <text style="font-size: 8px; font-family: 'DejaVu Serif'; text-anchor: middle" x="270.750358" y="85.119386" transform="rotate(-0 270.750358 85.119386)">175</text>
    </g>
   </g>
   <g id="xtick_24">
    <g id="line2d_27">
     <path d="M 251.601807 67.048218 
L 255.365483 67.66397 
" style="fill: none; stroke: #000000; stroke-width: 0.8; stroke-linecap: square"/>
    </g>
    <g id="text_26">
     <text style="font-size: 8px; font-family: 'DejaVu Serif'; text-anchor: middle" x="271.255353" y="71.29115" transform="rotate(-0 271.255353 71.29115)">200</text>
    </g>
   </g>
   <g id="text_27">
    <text style="font-size: 8px; font-family: 'DejaVu Serif'; text-anchor: middle" x="287.936844" y="113.787086" transform="rotate(-88.197878 287.936844 113.787086)">z (mm)</text>
   </g>
  </g>
  <g id="axes_1">
   <g id="line2d_28">
    <path d="M 217.27645 124.133943 
L 215.800177 121.833833 
L 214.229175 119.544601 
L 212.544059 117.265674 
L 210.738391 114.999485 
L 208.793059 112.747039 
L 206.693619 110.511408 
L 204.415286 108.295455 
L 201.934367 106.104525 
L 199.216654 103.945287 
L 196.225257 101.828488 
L 192.912628 99.76946 
L 189.227624 97.791967 
L 185.116267 95.931202 
L 180.540048 94.238344 
L 175.501417 92.780153 
L 170.078417 91.627832 
L 164.427674 90.831282 
L 158.733861 90.396626 
L 153.142939 90.289103 
L 147.734712 90.454786 
L 142.537798 90.840126 
L 137.549762 91.399944 
L 132.757057 92.099315 
L 128.139314 92.911279 
L 123.679229 93.815913 
L 119.357136 94.797398 
L 115.159985 95.844257 
L 111.071344 96.946635 
L 107.082859 98.097737 
L 103.1806 99.290928 
L 99.361691 100.522413 
L 95.610622 101.786689 
" clip-path="url(#p676f905595)" style="fill: none; stroke: #517f9b; stroke-width: 1.25; stroke-linecap: square"/>
   </g>
   <g id="line2d_29">
    <path d="M 208.646134 114.900882 
L 206.487348 111.857215 
L 204.234927 108.826874 
L 201.871858 105.810949 
L 199.39154 102.813297 
L 196.775716 99.836905 
L 194.011266 96.887351 
L 191.075069 93.970703 
L 187.945882 91.096495 
L 184.592834 88.276956 
L 180.983922 85.530348 
L 177.07861 82.8823 
L 172.836085 80.370775 
L 168.217277 78.050299 
L 163.204452 75.997113 
L 157.82604 74.306707 
L 152.186238 73.075347 
L 146.458175 72.363073 
L 140.825961 72.1653 
L 135.420407 72.421818 
L 130.300267 73.049812 
L 125.474131 73.970675 
L 120.923179 75.11999 
L 116.621348 76.448764 
L 112.538829 77.919878 
L 108.651288 79.506033 
L 104.933654 81.185977 
L 101.368804 82.94417 
L 97.937031 84.767659 
L 94.627487 86.647249 
L 91.424125 88.574419 
L 88.321622 90.543711 
L 85.304761 92.548725 
" clip-path="url(#p676f905595)" style="fill: none; stroke: #668da4; stroke-width: 1.25; stroke-linecap: square"/>
   </g>
   <g id="line2d_30">
    <path d="M 195.540185 125.167378 
L 192.324746 122.858651 
L 189.015572 120.547439 
L 185.599588 118.234199 
L 182.070429 115.921223 
L 178.411743 113.609784 
L 174.613069 111.303379 
L 170.654674 109.005352 
L 166.520032 106.721764 
L 162.184635 104.460205 
L 157.625484 102.23277 
L 152.814711 100.056678 
L 147.729667 97.95848 
L 142.35689 95.977391 
L 136.713332 94.170282 
L 130.869424 92.611222 
L 124.969596 91.379179 
L 119.209369 90.529655 
L 113.766621 90.069913 
L 108.743074 89.962093 
L 104.160459 90.147073 
L 99.993398 90.565983 
L 96.19591 91.169066 
L 92.721499 91.917774 
L 89.525156 92.782314 
L 86.571304 93.740611 
L 83.826347 94.775136 
L 81.266732 95.87311 
L 78.867665 97.023597 
L 76.61439 98.218979 
L 74.48762 99.451897 
L 72.478256 100.71763 
L 70.571513 102.010957 
" clip-path="url(#p676f905595)" style="fill: none; stroke: #7aa0b2; stroke-width: 1.25; stroke-linecap: square"/>
   </g>
   <g id="line2d_31">
    <path d="M 185.757717 149.532092 
L 181.749928 149.105345 
L 177.648462 148.657769 
L 173.44336 148.186918 
L 169.128708 147.690943 
L 164.689918 147.1661 
L 160.118863 146.60967 
L 155.398813 146.016946 
L 150.517292 145.383602 
L 145.455225 144.703403 
L 140.197134 143.969934 
L 134.725601 143.175143 
L 129.032672 142.311069 
L 123.12525 141.370344 
L 117.047274 140.350276 
L 110.900984 139.257954 
L 104.859958 138.116133 
L 99.133886 136.961434 
L 93.892453 135.832093 
L 89.212352 134.754795 
L 85.085341 133.741107 
L 81.459313 132.792232 
L 78.267341 131.903803 
L 75.447384 131.070042 
L 72.943035 130.284496 
L 70.710359 129.54188 
L 68.709516 128.836833 
L 66.912255 128.165635 
L 65.290145 127.524101 
L 63.825619 126.909848 
L 62.497125 126.319507 
L 61.292852 125.751392 
L 60.198459 125.20315 
" clip-path="url(#p676f905595)" style="fill: none; stroke: #8eb2bf; stroke-width: 1.25; stroke-linecap: square"/>
   </g>
   <g id="line2d_32">
    <path d="M 185.445003 173.128182 
L 181.441738 174.533711 
L 177.34984 175.90253 
L 173.159541 177.229098 
L 168.865104 178.507801 
L 164.452187 179.730133 
L 159.912855 180.887436 
L 155.230643 181.967304 
L 150.393283 182.955436 
L 145.381941 183.832302 
L 140.181278 184.573604 
L 134.773928 185.146818 
L 129.151684 185.510427 
L 123.320709 185.611601 
L 117.323277 185.389209 
L 111.258651 184.784155 
L 105.296052 183.762867 
L 99.640389 182.341647 
L 94.457788 180.587257 
L 89.82355 178.588366 
L 85.729852 176.425246 
L 82.125893 174.157881 
L 78.946305 171.826559 
L 76.130493 169.457879 
L 73.623325 167.068547 
L 71.381905 164.669996 
L 69.367288 162.269034 
L 67.551925 159.871021 
L 65.908013 157.478582 
L 64.418462 155.094614 
L 63.062178 152.719808 
L 61.827653 150.35573 
L 60.700949 148.002617 
" clip-path="url(#p676f905595)" style="fill: none; stroke: #ad5b4f; stroke-width: 1.25; stroke-linecap: square"/>
   </g>
   <g id="line2d_33">
    <path d="M 194.643682 181.533667 
L 191.414718 183.552538 
L 188.102168 185.52454 
L 184.693482 187.443018 
L 181.182747 189.301667 
L 177.554282 191.090869 
L 173.798205 192.800519 
L 169.895586 194.416339 
L 165.830646 195.921529 
L 161.579809 197.293194 
L 157.120925 198.502405 
L 152.426984 199.510203 
L 147.475799 200.266054 
L 142.253636 200.704673 
L 136.775488 200.748529 
L 131.10709 200.319393 
L 125.384745 199.36655 
L 119.793776 197.898667 
L 114.503117 195.988611 
L 109.609411 193.741144 
L 105.133189 191.255225 
L 101.050175 188.607212 
L 97.316495 185.850048 
L 93.887873 183.019627 
L 90.721436 180.139394 
L 87.783402 177.225694 
L 85.041798 174.288972 
L 82.474347 171.337313 
L 80.057456 168.375439 
L 77.777265 165.407874 
L 75.615393 162.436601 
L 73.563299 159.464399 
L 71.607068 156.491991 
" clip-path="url(#p676f905595)" style="fill: none; stroke: #bd746a; stroke-width: 1.25; stroke-linecap: square"/>
   </g>
   <g id="line2d_34">
    <path d="M 207.561922 170.435292 
L 205.358225 171.587604 
L 203.068657 172.700869 
L 200.676832 173.769586 
L 198.17666 174.789722 
L 195.550665 175.75421 
L 192.786461 176.65606 
L 189.861945 177.485021 
L 186.756925 178.229433 
L 183.441882 178.873212 
L 179.886268 179.396479 
L 176.051267 179.772556 
L 171.897775 179.967557 
L 167.388217 179.938496 
L 162.5053 179.63609 
L 157.275686 179.01347 
L 151.798278 178.045589 
L 146.237647 176.748595 
L 140.768631 175.179169 
L 135.515025 173.410406 
L 130.531834 171.507226 
L 125.826366 169.517364 
L 121.379953 167.472306 
L 117.167256 165.392538 
L 113.15946 163.290601 
L 109.333159 161.175016 
L 105.664236 159.050593 
L 102.136322 156.921224 
L 98.730488 154.788529 
L 95.436448 152.654613 
L 92.238778 150.519642 
L 89.132464 148.385156 
L 86.102999 146.250235 
" clip-path="url(#p676f905595)" style="fill: none; stroke: #ca8c82; stroke-width: 1.25; stroke-linecap: square"/>
   </g>
   <g id="line2d_35">
    <path d="M 216.775804 146.89811 
L 215.272592 146.298641 
L 213.677291 145.686176 
L 211.970809 145.05757 
L 210.146942 144.412195 
L 208.186932 143.747132 
L 206.076682 143.060545 
L 203.791885 142.348905 
L 201.309359 141.609246 
L 198.595563 140.837117 
L 195.614354 140.028264 
L 192.319106 139.17742 
L 188.659682 138.280032 
L 184.583145 137.332821 
L 180.05175 136.337411 
L 175.06792 135.30432 
L 169.708201 134.2568 
L 164.126089 133.227377 
L 158.502361 132.246363 
L 152.979624 131.331655 
L 147.635525 130.487682 
L 142.497577 129.710785 
L 137.562939 128.99364 
L 132.817993 128.328734 
L 128.242503 127.708686 
L 123.81933 127.127687 
L 119.529031 126.580178 
L 115.358735 126.06233 
L 111.292218 125.570012 
L 107.321266 125.100868 
L 103.432128 124.651668 
L 99.621982 124.221365 
L 95.875564 123.806586 
" clip-path="url(#p676f905595)" style="fill: none; stroke: #d7a49a; stroke-width: 1.25; stroke-linecap: square"/>
   </g>
   <g id="line2d_36">
    <path d="M 216.784145 133.956296 
L 216.767839 131.011464 
L 216.58682 128.223961 
L 216.242191 125.620296 
L 215.736487 123.225582 
L 215.073693 121.063322 
L 214.259231 119.155184 
L 213.299959 117.52079 
L 212.204145 116.177496 
L 210.981434 115.140182 
L 209.642799 114.42105 
L 208.200483 114.029435 
L 206.667917 113.971626 
L 205.059624 114.250714 
L 203.391106 114.866463 
L 201.678714 115.81521 
L 199.939494 117.089803 
L 198.191023 118.679577 
L 196.451225 120.570372 
L 194.73817 122.744611 
L 193.06987 125.18141 
L 191.46406 127.856756 
L 189.937971 130.743733 
L 188.508114 133.812796 
L 187.190055 137.032095 
L 185.998203 140.367851 
L 184.945617 143.784757 
L 184.043819 147.246421 
L 183.302635 150.715832 
L 182.730066 154.155834 
L 182.332173 157.529609 
L 182.113009 160.801155 
L 182.07457 163.935746 
L 182.216786 166.900371 
L 182.537542 169.664136 
L 183.032728 172.198633 
L 183.696321 174.478252 
L 184.520494 176.480454 
L 185.495741 178.185983 
L 186.61103 179.579029 
L 187.853966 180.647329 
L 189.21097 181.382221 
L 190.667458 181.778651 
L 192.208031 181.835122 
L 193.816666 181.553617 
L 195.476894 180.939469 
L 197.171985 180.001213 
L 198.88512 178.750407 
L 200.599551 177.201432 
L 202.298755 175.371273 
L 203.966579 173.279299 
L 205.587363 170.947026 
L 207.146065 168.397884 
L 208.628368 165.656971 
L 210.020772 162.750828 
L 211.310687 159.707195 
L 212.486508 156.554789 
L 213.537688 153.323072 
L 214.454796 150.042034 
L 215.229577 146.741974 
L 215.855003 143.453282 
L 216.325314 140.206232 
L 216.636062 137.030769 
L 216.784145 133.956296 
" clip-path="url(#p676f905595)" style="fill: none; stroke: #4d5961; stroke-linecap: square"/>
   </g>
   <g id="line2d_37">
    <path d="M 220.53249 134.656667 
L 220.519774 131.708972 
L 220.34299 128.918943 
L 220.003199 126.313114 
L 219.502896 123.916619 
L 218.846013 121.752976 
L 218.03792 119.843873 
L 217.085415 118.208941 
L 215.996702 116.865546 
L 214.781357 115.828574 
L 213.450285 115.11023 
L 212.015653 114.719846 
L 210.490817 114.663705 
L 208.890221 114.944889 
L 207.229292 115.563146 
L 205.524302 116.514796 
L 203.792221 117.792661 
L 202.050551 119.386048 
L 200.317143 121.280767 
L 198.610002 123.4592 
L 196.947076 125.900424 
L 195.34604 128.580382 
L 193.824075 131.472108 
L 192.397647 134.546008 
L 191.082283 137.770179 
L 189.892365 141.110787 
L 188.840928 144.532471 
L 187.939483 147.998785 
L 187.197854 151.472665 
L 186.624044 154.916903 
L 186.224131 158.294633 
L 186.002188 161.569807 
L 185.960244 164.707658 
L 186.098266 167.675141 
L 186.414187 170.44133 
L 186.903948 172.97779 
L 187.561585 175.258895 
L 188.379335 177.262092 
L 189.347758 178.968118 
L 190.455896 180.361163 
L 191.691427 181.428967 
L 193.040847 182.162882 
L 194.48965 182.557868 
L 196.022514 182.612451 
L 197.623492 182.328637 
L 199.27619 181.711789 
L 200.963951 180.770476 
L 202.670026 179.51629 
L 204.377733 177.963648 
L 206.070615 176.129576 
L 207.732574 174.033484 
L 209.348006 171.696929 
L 210.901918 169.143381 
L 212.380036 166.397982 
L 213.768897 163.487313 
L 215.055945 160.439156 
L 216.229599 157.282266 
L 217.279331 154.046147 
L 218.195723 150.760825 
L 218.970529 147.456636 
L 219.596718 144.164005 
L 220.068525 140.91324 
L 220.38149 137.734316 
L 220.53249 134.656667 
" clip-path="url(#p676f905595)" style="fill: none; stroke: #4d5961; stroke-linecap: square"/>
   </g>
   <g id="line2d_38">
    <path d="M 95.657049 111.323473 
L 95.529344 108.472038 
L 95.217223 105.767199 
L 94.722971 103.234704 
L 94.050488 100.898983 
L 93.205289 98.782937 
L 92.194491 96.907726 
L 91.026791 95.292557 
L 89.712431 93.954476 
L 88.263147 92.908162 
L 86.692107 92.165736 
L 85.013826 91.736573 
L 83.244071 91.627134 
L 81.399736 91.840823 
L 79.498712 92.377855 
L 77.559724 93.235164 
L 75.602156 94.406344 
L 73.645858 95.88162 
L 71.710939 97.647871 
L 69.817535 99.688691 
L 67.985583 101.984504 
L 66.234572 104.512719 
L 64.583302 107.247948 
L 63.049638 110.162261 
L 61.650271 113.225491 
L 60.400495 116.405582 
L 59.313995 119.668974 
L 58.402653 122.981017 
L 57.676392 126.306405 
L 57.143033 129.609632 
L 56.808197 132.855445 
L 56.675232 136.009296 
L 56.745182 139.037784 
L 57.016788 141.909069 
L 57.486526 144.593264 
L 58.148676 147.062782 
L 58.995428 149.292651 
L 60.017007 151.260768 
L 61.20183 152.948121 
L 62.536681 154.338946 
L 64.0069 155.420838 
L 65.596585 156.184815 
L 67.288802 156.62533 
L 69.065795 156.740239 
L 70.9092 156.530737 
L 72.800253 156.001244 
L 74.719987 155.159277 
L 76.649429 154.015279 
L 78.569778 152.582444 
L 80.462574 150.876516 
L 82.309858 148.915573 
L 84.094311 146.719817 
L 85.799388 144.311341 
L 87.409433 141.71391 
L 88.909789 138.952733 
L 90.286886 136.054235 
L 91.528333 133.045843 
L 92.622988 129.955757 
L 93.561025 126.812746 
L 94.333993 123.645926 
L 94.934871 120.484554 
L 95.358107 117.357824 
L 95.599664 114.294651 
L 95.657049 111.323473 
" clip-path="url(#p676f905595)" style="fill: none; stroke: #4d5961; stroke-linecap: square"/>
   </g>
   <g id="line2d_39">
    <path d="M 99.120045 111.97057 
L 98.995398 109.116441 
L 98.686869 106.40921 
L 98.196709 103.874646 
L 97.52878 101.537199 
L 96.688557 99.419789 
L 95.683108 97.543589 
L 94.521081 95.927819 
L 93.212663 94.589534 
L 91.769534 93.54342 
L 90.204802 92.801599 
L 88.53292 92.373446 
L 86.769591 92.26542 
L 84.931646 92.480913 
L 83.03691 93.020129 
L 81.104043 93.879986 
L 79.152368 95.054056 
L 77.201673 96.532541 
L 75.272007 98.30229 
L 73.383453 100.346864 
L 71.555894 102.646649 
L 69.808774 105.179017 
L 68.160851 107.918535 
L 66.629952 110.837228 
L 65.232741 113.90488 
L 63.984487 117.089388 
L 62.898859 120.357143 
L 61.987731 123.673444 
L 61.261022 127.002938 
L 60.72656 130.310071 
L 60.389978 133.559545 
L 60.254643 136.716773 
L 60.321625 139.748313 
L 60.589698 142.622293 
L 61.055375 145.308797 
L 61.712982 147.780215 
L 62.554755 150.011553 
L 63.570972 151.980699 
L 64.750107 153.668631 
L 66.079002 155.059583 
L 67.54306 156.141153 
L 69.126439 156.904369 
L 70.812271 157.343695 
L 72.582862 157.457007 
L 74.419913 157.245519 
L 76.30472 156.713679 
L 78.218379 155.86903 
L 80.141973 154.722048 
L 82.056758 153.285959 
L 83.944326 151.576542 
L 85.786767 149.611912 
L 87.566807 147.412306 
L 89.267942 144.999858 
L 90.874553 142.398368 
L 92.372012 139.633084 
L 93.746778 136.730469 
L 94.98648 133.717984 
L 96.079991 130.623869 
L 97.017498 127.476924 
L 97.790554 124.306301 
L 98.392136 121.14129 
L 98.816688 118.011114 
L 99.060161 114.944719 
L 99.120045 111.97057 
" clip-path="url(#p676f905595)" style="fill: none; stroke: #4d5961; stroke-linecap: square"/>
   </g>
   <g id="line2d_40">
    <path d="M 211.059206 118.658804 
L 88.030155 96.232184 
" clip-path="url(#p676f905595)" style="fill: none; stroke-dasharray: 2.59,1.12; stroke-dashoffset: 0; stroke: #9b823a; stroke-width: 0.7"/>
   </g>
   <g id="line2d_41">
    <path d="M 210.164604 162.904193 
L 88.634371 139.01886 
" clip-path="url(#p676f905595)" style="fill: none; stroke-dasharray: 2.59,1.12; stroke-dashoffset: 0; stroke: #9b823a; stroke-width: 0.7"/>
   </g>
   <g id="line2d_42">
    <path d="M 193.011005 132.938741 
L 67.741306 109.39346 
" clip-path="url(#p676f905595)" style="fill: none; stroke-dasharray: 2.59,1.12; stroke-dashoffset: 0; stroke: #9b823a; stroke-width: 0.7"/>
   </g>
   <g id="line2d_43">
    <path d="M 192.323232 178.100766 
L 68.607095 153.039004 
" clip-path="url(#p676f905595)" style="fill: none; stroke-dasharray: 2.59,1.12; stroke-dashoffset: 0; stroke: #9b823a; stroke-width: 0.7"/>
   </g>
   <g id="line2d_44">
    <path d="M 26.85827 203.231898 
L 246.377085 177.641311 
" clip-path="url(#p676f905595)" style="fill: none; stroke: #b9b9b9; stroke-width: 0.7; stroke-linecap: square"/>
   </g>
  </g>
 </g>
 <defs>
  <clipPath id="p676f905595">
   <rect x="2.16" y="2.16" width="266.112" height="266.112"/>
  </clipPath>
 </defs>
</svg>
